<?xml version="1.0" encoding="UTF-8" standalone="no"?>
<!-- Created with Inkscape (http://www.inkscape.org/) -->

<svg
   xmlns:dc="http://purl.org/dc/elements/1.1/"
   xmlns:cc="http://creativecommons.org/ns#"
   xmlns:rdf="http://www.w3.org/1999/02/22-rdf-syntax-ns#"
   xmlns:svg="http://www.w3.org/2000/svg"
   xmlns="http://www.w3.org/2000/svg"
   xmlns:xlink="http://www.w3.org/1999/xlink"
   xmlns:sodipodi="http://sodipodi.sourceforge.net/DTD/sodipodi-0.dtd"
   xmlns:inkscape="http://www.inkscape.org/namespaces/inkscape"
   width="480"
   height="480"
   id="svg2"
   version="1.1"
   inkscape:version="0.92.3 (2405546, 2018-03-11)"
   sodipodi:docname="Hopsan-Zoom100.svg"
   inkscape:export-filename="C:\Users\Robert\Documents\Jobbsaker\Hopsan-Zoom100.png"
   inkscape:export-xdpi="90"
   inkscape:export-ydpi="90">
  <defs
     id="defs4">
    <linearGradient
       id="linearGradient3647">
      <stop
         id="stop3649"
         offset="0"
         style="stop-color:#1f78b4;stop-opacity:1;" />
      <stop
         id="stop3651"
         offset="1"
         style="stop-color:#ffffff;stop-opacity:1;" />
    </linearGradient>
    <linearGradient
       id="linearGradient3623">
      <stop
         id="stop3625"
         offset="0"
         style="stop-color:#0b0b0b;stop-opacity:1;" />
      <stop
         id="stop3627"
         offset="1"
         style="stop-color:#b8b8b8;stop-opacity:1;" />
    </linearGradient>
    <linearGradient
       id="linearGradient3607">
      <stop
         style="stop-color:#121212;stop-opacity:1;"
         offset="0"
         id="stop3609" />
      <stop
         style="stop-color:#ffffff;stop-opacity:1;"
         offset="1"
         id="stop3611" />
    </linearGradient>
    <inkscape:perspective
       sodipodi:type="inkscape:persp3d"
       inkscape:vp_x="0 : 526.18109 : 1"
       inkscape:vp_y="0 : 1000 : 0"
       inkscape:vp_z="744.09448 : 526.18109 : 1"
       inkscape:persp3d-origin="372.04724 : 350.78739 : 1"
       id="perspective10" />
    <inkscape:perspective
       id="perspective2824"
       inkscape:persp3d-origin="0.5 : 0.33333333 : 1"
       inkscape:vp_z="1 : 0.5 : 1"
       inkscape:vp_y="0 : 1000 : 0"
       inkscape:vp_x="0 : 0.5 : 1"
       sodipodi:type="inkscape:persp3d" />
    <inkscape:perspective
       id="perspective4230"
       inkscape:persp3d-origin="0.5 : 0.33333333 : 1"
       inkscape:vp_z="1 : 0.5 : 1"
       inkscape:vp_y="0 : 1000 : 0"
       inkscape:vp_x="0 : 0.5 : 1"
       sodipodi:type="inkscape:persp3d" />
    <linearGradient
       inkscape:collect="always"
       xlink:href="#linearGradient4214"
       id="linearGradient4220"
       x1="21.960373"
       y1="264.21463"
       x2="485.79724"
       y2="264.21463"
       gradientUnits="userSpaceOnUse" />
    <linearGradient
       inkscape:collect="always"
       id="linearGradient4214">
      <stop
         style="stop-color:#000000;stop-opacity:1;"
         offset="0"
         id="stop4216" />
      <stop
         style="stop-color:#000000;stop-opacity:0;"
         offset="1"
         id="stop4218" />
    </linearGradient>
    <linearGradient
       inkscape:collect="always"
       xlink:href="#linearGradient3607"
       id="linearGradient4266"
       x1="-0.4796038"
       y1="391.75488"
       x2="489.2233"
       y2="101.99696"
       gradientUnits="userSpaceOnUse"
       gradientTransform="matrix(1.1045642,-0.30908834,0.31373877,1.0306484,-107.37895,61.090209)" />
    <linearGradient
       inkscape:collect="always"
       xlink:href="#linearGradient3623"
       id="linearGradient4274"
       x1="14.999991"
       y1="465"
       x2="465"
       y2="14.999999"
       gradientUnits="userSpaceOnUse" />
    <linearGradient
       inkscape:collect="always"
       xlink:href="#linearGradient3647"
       id="linearGradient4822"
       x1="56.938774"
       y1="433.87753"
       x2="468.92856"
       y2="16.785706"
       gradientUnits="userSpaceOnUse" />
    <linearGradient
       inkscape:collect="always"
       xlink:href="#linearGradient3623"
       id="linearGradient4830"
       x1="56.938774"
       y1="433.87753"
       x2="468.92856"
       y2="16.785706"
       gradientUnits="userSpaceOnUse" />
    <linearGradient
       inkscape:collect="always"
       xlink:href="#linearGradient3647"
       id="linearGradient4838"
       gradientUnits="userSpaceOnUse"
       x1="56.938774"
       y1="433.87753"
       x2="468.92856"
       y2="16.785706" />
    <linearGradient
       inkscape:collect="always"
       xlink:href="#linearGradient3623"
       id="linearGradient4840"
       gradientUnits="userSpaceOnUse"
       x1="56.938774"
       y1="433.87753"
       x2="468.92856"
       y2="16.785706" />
    <linearGradient
       inkscape:collect="always"
       xlink:href="#linearGradient3607"
       id="linearGradient4850"
       x1="339.41125"
       y1="318.19812"
       x2="335.80243"
       y2="-299.21927"
       gradientUnits="userSpaceOnUse" />
    <linearGradient
       inkscape:collect="always"
       xlink:href="#linearGradient3623"
       id="linearGradient4858"
       x1="339.41125"
       y1="318.19812"
       x2="335.80243"
       y2="-299.21927"
       gradientUnits="userSpaceOnUse" />
    <linearGradient
       inkscape:collect="always"
       xlink:href="#linearGradient3623"
       id="linearGradient4860"
       gradientUnits="userSpaceOnUse"
       x1="335"
       y1="340.11789"
       x2="335"
       y2="-38.689327" />
    <linearGradient
       inkscape:collect="always"
       xlink:href="#linearGradient3647"
       id="linearGradient4862"
       gradientUnits="userSpaceOnUse"
       x1="335"
       y1="340.11789"
       x2="335"
       y2="-38.689327" />
  </defs>
  <sodipodi:namedview
     id="base"
     pagecolor="#ffffff"
     bordercolor="#666666"
     borderopacity="1.0"
     inkscape:pageopacity="0.0"
     inkscape:pageshadow="2"
     inkscape:zoom="0.1767767"
     inkscape:cx="2952.7307"
     inkscape:cy="561.14342"
     inkscape:document-units="px"
     inkscape:current-layer="layer2"
     showgrid="false"
     inkscape:window-width="1920"
     inkscape:window-height="1043"
     inkscape:window-x="1680"
     inkscape:window-y="0"
     inkscape:window-maximized="1" />
  <metadata
     id="metadata7">
    <rdf:RDF>
      <cc:Work
         rdf:about="">
        <dc:format>image/svg+xml</dc:format>
        <dc:type
           rdf:resource="http://purl.org/dc/dcmitype/StillImage" />
        <dc:title />
      </cc:Work>
    </rdf:RDF>
  </metadata>
  <g
     inkscape:label="Layer 1"
     inkscape:groupmode="layer"
     id="layer1"
     transform="translate(0,-572.36218)"
     style="opacity:0" />
  <g
     inkscape:groupmode="layer"
     id="layer2"
     inkscape:label="Layer"
     style="opacity:1">
    <rect
       style="fill:url(#linearGradient4850);fill-opacity:1.0;fill-rule:nonzero;stroke:url(#linearGradient4858);stroke-width:15.26681232000000000;stroke-linecap:round;stroke-linejoin:round;stroke-miterlimit:4;stroke-opacity:1;stroke-dasharray:none;stroke-dashoffset:0"
       id="rect4832"
       width="42.165482"
       height="306.79022"
       x="318.32852"
       y="-8.1472616"
       ry="21.082741"
       transform="matrix(0.70710694,0.70710662,-0.70710694,0.70710662,0,0)" />
    <path
       sodipodi:type="arc"
       style="fill:url(#linearGradient4862);fill-opacity:1;fill-rule:nonzero;stroke:url(#linearGradient4860);stroke-width:15;stroke-linecap:round;stroke-linejoin:round;stroke-miterlimit:4;stroke-opacity:1;stroke-dasharray:none;stroke-dashoffset:0"
       id="path4814"
       sodipodi:cx="335"
       sodipodi:cy="150.71428"
       sodipodi:rx="126.42857"
       sodipodi:ry="126.42857"
       d="m 461.42857,150.71428 a 126.42857,126.42857 0 1 1 -252.85714,0 126.42857,126.42857 0 1 1 252.85714,0 z"
       transform="matrix(0.80604674,0.80604638,-0.80604674,0.80604638,163.78896,-223.84008)" />
    <g
       aria-label="100%"
       style="font-style:normal;font-weight:normal;line-height:0%;font-family:'Bitstream Vera Sans';fill:#000000;fill-opacity:1;stroke:none"
       id="text4864">
      <path
         d="m 158.71094,408.32 h -23.8 V 395.3 q 25.76,0 30.38,-17.78 h 13.02 v 99.26 h -19.6 z"
         style="font-style:normal;font-variant:normal;font-weight:bold;font-stretch:normal;font-size:140px;line-height:125%;font-family:freesans;-inkscape-font-specification:'freesans Bold';text-align:start;writing-mode:lr-tb;text-anchor:start"
         id="path6733" />
      <path
         d="m 258.34063,476.08 q -6.86,3.92 -16.8,3.92 -9.94,0 -16.8,-3.92 -6.86,-4.06 -10.64,-11.48 -3.64,-7.42 -5.18,-16.24 -1.54,-8.96 -1.54,-20.58 0,-25.34 7.7,-38.78 7.7,-13.58 26.46,-13.58 9.8,0 16.52,3.78 6.86,3.64 10.64,10.92 3.78,7.28 5.32,16.52 1.68,9.24 1.68,21.7 0,11.2 -1.54,20.02 -1.54,8.68 -5.18,16.24 -3.64,7.42 -10.64,11.48 z m -2.24,-48.16 q 0,-20.3 -3.78,-28.42 -3.64,-8.26 -10.78,-8.26 -7.84,0 -11.2,7.98 -3.36,7.84 -3.36,28.42 0,14.28 1.82,22.4 1.82,7.98 4.76,10.64 3.08,2.52 7.98,2.52 4.76,0 7.7,-2.52 3.08,-2.52 4.9,-10.5 1.96,-8.12 1.96,-22.26 z"
         style="font-style:normal;font-variant:normal;font-weight:bold;font-stretch:normal;font-size:140px;line-height:125%;font-family:freesans;-inkscape-font-specification:'freesans Bold';text-align:start;writing-mode:lr-tb;text-anchor:start"
         id="path6735" />
      <path
         d="m 336.27031,476.08 q -6.86,3.92 -16.8,3.92 -9.94,0 -16.8,-3.92 -6.86,-4.06 -10.64,-11.48 -3.64,-7.42 -5.18,-16.24 -1.54,-8.96 -1.54,-20.58 0,-25.34 7.7,-38.78 7.7,-13.58 26.46,-13.58 9.8,0 16.52,3.78 6.86,3.64 10.64,10.92 3.78,7.28 5.32,16.52 1.68,9.24 1.68,21.7 0,11.2 -1.54,20.02 -1.54,8.68 -5.18,16.24 -3.64,7.42 -10.64,11.48 z m -2.24,-48.16 q 0,-20.3 -3.78,-28.42 -3.64,-8.26 -10.78,-8.26 -7.84,0 -11.2,7.98 -3.36,7.84 -3.36,28.42 0,14.28 1.82,22.4 1.82,7.98 4.76,10.64 3.08,2.52 7.98,2.52 4.76,0 7.7,-2.52 3.08,-2.52 4.9,-10.5 1.96,-8.12 1.96,-22.26 z"
         style="font-style:normal;font-variant:normal;font-weight:bold;font-stretch:normal;font-size:140px;line-height:125%;font-family:freesans;-inkscape-font-specification:'freesans Bold';text-align:start;writing-mode:lr-tb;text-anchor:start"
         id="path6737" />
      <path
         d="m 388.02,378.64 q 10.78,0 18.2,7.56 7.56,7.42 7.56,18.2 0,10.22 -7.7,17.78 -7.56,7.42 -18.06,7.42 -10.64,0 -18.2,-7.42 -7.56,-7.56 -7.56,-18.06 0,-10.5 7.56,-17.92 7.56,-7.56 18.2,-7.56 z m 8.4,17.36 q -3.5,-3.5 -8.4,-3.5 -4.9,0 -8.4,3.5 -3.5,3.36 -3.5,8.12 0,4.9 3.5,8.4 3.5,3.36 8.4,3.36 4.9,0 8.4,-3.36 3.5,-3.5 3.5,-8.26 0,-4.9 -3.5,-8.26 z m 47.6,-18.48 h 10.64 l -55.3,102.06 h -10.78 z m 10.22,49.98 q 10.78,0 18.2,7.56 7.56,7.42 7.56,18.34 0,10.22 -7.7,17.78 -7.56,7.42 -18.06,7.42 -10.64,0 -18.2,-7.42 -7.56,-7.56 -7.56,-18.2 0,-10.5 7.56,-17.92 7.56,-7.56 18.2,-7.56 z m 8.4,17.36 q -3.5,-3.5 -8.4,-3.5 -4.9,0 -8.4,3.5 -3.5,3.36 -3.5,8.26 0,4.9 3.5,8.4 3.5,3.36 8.4,3.36 4.9,0 8.4,-3.36 3.5,-3.5 3.5,-8.26 0,-4.9 -3.5,-8.4 z"
         style="font-style:normal;font-variant:normal;font-weight:bold;font-stretch:normal;font-size:140px;line-height:125%;font-family:freesans;-inkscape-font-specification:'freesans Bold';text-align:start;writing-mode:lr-tb;text-anchor:start"
         id="path6739" />
    </g>
    <text
       xml:space="preserve"
       style="font-style:normal;font-weight:normal;line-height:0%;font-family:'Bitstream Vera Sans';opacity:1;fill:#000000;fill-opacity:1;stroke:none"
       x="-595.01489"
       y="-53.585987"
       id="text4864-9"><tspan
         sodipodi:role="line"
         id="tspan4866-1"
         x="-595.01489"
         y="-53.585987"
         style="font-style:normal;font-variant:normal;font-weight:bold;font-stretch:normal;font-size:140px;line-height:125%;font-family:freesans;-inkscape-font-specification:'freesans Bold';text-align:start;writing-mode:lr-tb;text-anchor:start">100%</tspan></text>
  </g>
</svg>
